# xmcd
#
# Track frame offsets:
#	150
#	23605
#	40862
#	64092
#	83995
#	106930
#	124912
#	140902
#	161680
#	179325
#
# Disc length: 2645 seconds
#
# Revision: 0
# Processed by: cddbd v1.5.2PL0 Copyright (c) Steve Scherf et al.
# Submitted via: EasyCDDAExtractor 15.3.0.1
#
DISCID=860a530a
DTITLE=Yolandita Monge - Cara De Angel
DYEAR=1992
DGENRE=Latin
TTITLE0=Sobrevivire
TTITLE1=Un Dia Feliz
TTITLE2=Podras Decir Te Amo
TTITLE3=Vivire Sin Ti
TTITLE4=Entrega Total
TTITLE5=Angel Caido
TTITLE6=Cualquiera No
TTITLE7=Cara De Angel
TTITLE8=Salte De Mi Vida
TTITLE9=Entre Mil Pasos
EXTD=
EXTT0=
EXTT1=
EXTT2=
EXTT3=
EXTT4=
EXTT5=
EXTT6=
EXTT7=
EXTT8=
EXTT9=
PLAYORDER=
